<?xml version="1.0" encoding="UTF-8" standalone="no"?>
<svg width="80px" height="27px" viewBox="0 0 80 27" version="1.1" xmlns="http://www.w3.org/2000/svg" xmlns:xlink="http://www.w3.org/1999/xlink">
    <!-- Generator: Sketch 39.1 (31720) - http://www.bohemiancoding.com/sketch -->
    <title>Google Play - Small</title>
    <desc>Created with Sketch.</desc>
    <defs>
        <rect id="path-1" x="0" y="0" width="78" height="25" rx="2"></rect>
        <mask id="mask-2" maskContentUnits="userSpaceOnUse" maskUnits="objectBoundingBox" x="-1" y="-1" width="80" height="27">
            <rect x="-1" y="-1" width="80" height="27" fill="white"></rect>
            <use xlink:href="#path-1" fill="black"></use>
        </mask>
    </defs>
    <g id="Page-1" stroke="none" stroke-width="1" fill="none" fill-rule="evenodd">
        <g id="Store-Icons" transform="translate(-117.000000, -172.000000)">
            <g id="Google-Play---Small" transform="translate(118.000000, 173.000000)">
                <use id="container" stroke="#5D5D5D" mask="url(#mask-2)" stroke-width="2" xlink:href="#path-1"></use>
                <g id="Google-Play" transform="translate(19.674419, 9.891892)">
                    <g id="google" fill="#575757">
                        <path d="M34.2632744,7.683 L33.6927442,8.21775676 C33.5612465,8.28978378 33.4301023,8.37340541 33.2993116,8.43278378 C32.9030512,8.61162162 32.5000744,8.65659459 32.1419907,8.65659459 C31.7609302,8.65659459 31.1635349,8.63235135 30.5544744,8.19421622 C29.7078698,7.60113514 29.3377674,6.58256757 29.3377674,5.6947027 C29.3377674,3.85643243 30.8432744,2.95486486 32.0709395,2.95486486 C32.5004279,2.95486486 32.9412279,3.06167568 33.2996651,3.28689189 C33.8956465,3.6782973 34.0497674,4.18740541 34.1353116,4.46040541 L31.3307349,5.58648649 L30.4123721,5.65745946 C30.7096558,7.16440541 31.7354791,8.04102703 32.8691163,8.04102703 C33.4354047,8.04102703 33.8557023,7.85762162 34.2413581,7.66789189 C34.2410047,7.66824324 34.3184186,7.62818919 34.2632744,7.683 L34.2632744,7.683 Z M32.5714791,4.68491892 C32.7994791,4.6027027 32.9175442,4.53137838 32.9175442,4.36659459 C32.9175442,3.89297297 32.3784744,3.34627027 31.7351256,3.34627027 C31.2582698,3.34627027 30.3639442,3.71518919 30.3639442,4.99586486 C30.3639442,5.19578378 30.3876279,5.4087027 30.4,5.62162162 L32.5714791,4.68491892 L32.5714791,4.68491892 Z" id="Shape"></path>
                        <path d="M28.3999628,7.59094595 C28.3999628,8.05191892 28.4826791,8.12359459 28.8746977,8.15943243 C29.079014,8.18332432 29.2826233,8.19421622 29.4844651,8.21775676 L29.0433116,8.47881081 L26.9411163,8.47881081 C27.2168372,8.12324324 27.2642047,8.08810811 27.2642047,7.85094595 L27.2642047,7.58637838 L27.2596093,0.537216216 L26.3313488,0.537216216 L27.224614,0.10927027 L28.9305488,0.10927027 C28.5608,0.321837838 28.4505116,0.451837838 28.4027907,0.866432432 L28.3999628,7.59094595 L28.3999628,7.59094595 Z" id="Shape"></path>
                        <path d="M25.1397395,3.5367027 C25.4133395,3.76051351 25.9852837,4.23518919 25.9852837,5.13640541 C25.9852837,6.01443243 25.4872186,6.42832432 24.9849116,6.82008108 C24.8307907,6.97432432 24.6508651,7.14156757 24.6508651,7.40016216 C24.6508651,7.66227027 24.8311442,7.80456757 24.9608744,7.91067568 L25.3917767,8.2412973 C25.9156465,8.68083784 26.3932093,9.08383784 26.3932093,9.90248649 C26.3932093,11.018027 25.307293,12.1423514 23.255293,12.1423514 C21.5267349,12.1423514 20.6910884,11.3244054 20.6910884,10.4470811 C20.6910884,10.0198378 20.9045953,9.41516216 21.6105116,9.00127027 C22.3500093,8.55189189 23.3521488,8.49181081 23.8883907,8.45667568 C23.7208372,8.24164865 23.5296,8.01643243 23.5296,7.64891892 C23.5296,7.44794595 23.5904,7.32813514 23.6490791,7.18689189 C23.5186419,7.19918919 23.3871442,7.21183784 23.2676651,7.21183784 C22.0025302,7.21183784 21.2870698,6.27372973 21.2870698,5.34897297 C21.2870698,4.80367568 21.5373395,4.199 22.0513116,3.76016216 C22.7314233,3.20362162 23.5423256,3.1077027 24.1867349,3.1077027 L26.644893,3.1077027 L25.8806512,3.5367027 L25.1397395,3.5367027 L25.1397395,3.5367027 Z M24.2941953,8.8002973 C24.1966326,8.78764865 24.1379535,8.78764865 24.0198884,8.78764865 C23.9117209,8.78764865 23.2673116,8.81083784 22.768186,8.97737838 C22.5041302,9.0732973 21.7409488,9.35683784 21.7409488,10.1993784 C21.7409488,11.0398108 22.5649302,11.6455405 23.8399628,11.6455405 C24.9849116,11.6455405 25.5932651,11.0998919 25.5932651,10.3652162 C25.5929116,9.76054054 25.1994791,9.44151351 24.2941953,8.8002973 L24.2941953,8.8002973 Z M24.6374326,6.54743243 C24.9131535,6.27408108 24.9371907,5.89602703 24.9371907,5.681 C24.9371907,4.82827027 24.425693,3.50016216 23.4341581,3.50016216 C23.1248558,3.50016216 22.7897488,3.65475676 22.5995721,3.89297297 C22.3980837,4.13997297 22.3376372,4.46040541 22.3376372,4.76854054 C22.3376372,5.56259459 22.8031814,6.87945946 23.8282977,6.87945946 C24.1269953,6.87945946 24.4486698,6.73505405 24.6374326,6.54743243 L24.6374326,6.54743243 Z" id="Shape"></path>
                        <path d="M17.7440558,8.63235135 C15.8479442,8.63235135 14.8334326,7.16440541 14.8334326,5.83594595 C14.8334326,4.28332432 16.1088186,2.95486486 17.9229209,2.95486486 C19.6765767,2.95486486 20.7748651,4.31951351 20.7748651,5.75232432 C20.7748651,7.15140541 19.6893023,8.63235135 17.7440558,8.63235135 L17.7440558,8.63235135 Z M19.2357767,7.67316216 C19.5242233,7.2937027 19.594214,6.82008108 19.594214,6.35840541 C19.594214,5.31418919 19.0936744,3.32272973 17.6143256,3.32272973 C17.220893,3.32272973 16.8246326,3.47556757 16.539014,3.72537838 C16.0731163,4.14032432 15.9900465,4.66137838 15.9900465,5.17294595 C15.9900465,6.34435135 16.5722419,8.27643243 18.0180093,8.27643243 C18.4849674,8.27643243 18.9611163,8.05191892 19.2357767,7.67316216 L19.2357767,7.67316216 Z" id="Shape"></path>
                        <path d="M11.3957581,8.63235135 C9.49929302,8.63235135 8.48619535,7.16440541 8.48619535,5.83594595 C8.48619535,4.28332432 9.76193488,2.95486486 11.5753302,2.95486486 C13.3279256,2.95486486 14.4251535,4.31951351 14.4251535,5.75232432 C14.425507,7.15140541 13.3413581,8.63235135 11.3957581,8.63235135 L11.3957581,8.63235135 Z M12.8878326,7.67316216 C13.1741581,7.2937027 13.2455628,6.82008108 13.2455628,6.35840541 C13.2455628,5.31418919 12.7436093,3.32272973 11.2656744,3.32272973 C10.8708279,3.32272973 10.4788093,3.47556757 10.1924837,3.72537838 C9.72587907,4.14032432 9.64316279,4.66137838 9.64316279,5.17294595 C9.64316279,6.34435135 10.2278326,8.27643243 11.6711256,8.27643243 C12.1370233,8.27643243 12.6124651,8.05191892 12.8878326,7.67316216 L12.8878326,7.67316216 Z" id="Shape"></path>
                        <path d="M7.72831628,8.22091892 L6.12913488,8.58456757 C5.4811907,8.68610811 4.89934884,8.7757027 4.2832186,8.7757027 C1.19832558,8.7757027 0.0233302326,6.51862162 0.0233302326,4.75272973 C0.0233302326,2.59543243 1.68861395,0.595891892 4.54020465,0.595891892 C5.1436093,0.595891892 5.7243907,0.684081081 6.2532093,0.827081081 C7.09133023,1.06143243 7.48299535,1.34954054 7.72831628,1.51889189 L6.79934884,2.39586486 L6.40768372,2.483 L6.68693953,2.0402973 C6.30870698,1.67313514 5.61339535,0.995378378 4.29382326,0.995378378 C2.52956279,0.995378378 1.19832558,2.32840541 1.19832558,4.27454054 C1.19832558,6.36472973 2.71832558,8.33089189 5.15527442,8.33089189 C5.87144186,8.33089189 6.24013023,8.18789189 6.57488372,8.05437838 L6.57488372,6.26248649 L4.88662326,6.35278378 L5.78165581,5.87494595 L8.15108837,5.87494595 L7.8615814,6.15216216 C7.78310698,6.21821622 7.77285581,6.2407027 7.75093953,6.32924324 C7.73927442,6.43043243 7.72866977,6.75227027 7.72866977,6.86540541 L7.72866977,8.22091892 L7.72831628,8.22091892 Z" id="Shape"></path>
                    </g>
                    <g id="play" transform="translate(37.116279, 1.054054)" fill="#434343">
                        <path d="M0.585376744,6.67954054 L0.585376744,9.69975676 L-0.018027907,9.69975676 L-0.018027907,2.015 L0.585376744,2.015 L0.585376744,2.88986486 C0.978102326,2.32454054 1.6963907,1.87586486 2.53097674,1.87586486 C4.02693953,1.87586486 5.03508837,3.00405405 5.03508837,4.78997297 C5.03508837,6.56394595 4.02693953,7.71567568 2.53097674,7.71567568 C1.74340465,7.71602703 1.03784186,7.31232432 0.585376744,6.67954054 L0.585376744,6.67954054 Z M4.3867907,4.79032432 C4.3867907,3.4442973 3.68087442,2.41764865 2.42917209,2.41764865 C1.65185116,2.41764865 0.908465116,3.02513514 0.585376744,3.55427027 L0.585376744,6.01408108 C0.908465116,6.54462162 1.65185116,7.17389189 2.42917209,7.17389189 C3.68087442,7.17389189 4.3867907,6.13845946 4.3867907,4.79032432 L4.3867907,4.79032432 Z" id="Shape"></path>
                        <polygon id="Shape" points="5.85906977 7.57759459 5.85906977 -0.106810811 6.46212093 -0.106810811 6.46212093 7.57759459 5.85906977 7.57759459"></polygon>
                        <path d="M13.2328372,9.20259459 C13.361507,9.25951351 13.5817302,9.295 13.7217116,9.295 C14.0907535,9.295 14.3477395,9.14497297 14.5785674,8.61478378 L15.0186605,7.62397297 L12.6414512,2.015 L13.314493,2.015 L15.353414,6.87559459 L17.3725395,2.015 L18.0551256,2.015 L15.1561674,8.80064865 C14.8553488,9.49983784 14.3820279,9.83608108 13.7319628,9.83608108 C13.5368372,9.83608108 13.2798512,9.8012973 13.1289116,9.75562162 L13.2328372,9.20259459 L13.2328372,9.20259459 Z" id="Shape"></path>
                        <path d="M11.4703442,7.56108108 C11.4300465,7.36818919 11.3996465,7.19848649 11.3773767,7.05618919 C11.3586419,6.91459459 11.3483907,6.76983784 11.3483907,6.62262162 C11.1412465,6.92443243 10.8482047,7.17564865 10.4738605,7.37381081 C10.0991628,7.57267568 9.74355349,7.6707027 9.25503256,7.6707027 C8.6671814,7.6707027 8.2111814,7.527 7.88526512,7.23537838 C7.56076279,6.94410811 7.39745116,6.54954054 7.39745116,6.05027027 C7.39745116,5.5517027 7.63393488,5.14694595 8.10548837,4.83740541 C8.57704186,4.52645946 9.1868093,4.37221622 9.9408,4.37221622 L11.3480372,4.37221622 L11.3480372,3.68075676 C11.3480372,3.28267568 11.2112372,2.96997297 10.9390512,2.74264865 C10.6654512,2.51567568 10.2815628,2.40043243 9.78349767,2.40043243 C9.32855814,2.40043243 8.95951628,2.50548649 8.67849302,2.70997297 C8.39994419,2.91867568 8.25996279,3.17727027 8.25996279,3.48891892 L7.6424186,3.48891892 L7.62969302,3.45905405 C7.60706977,3.03918919 7.8007814,2.67027027 8.21188837,2.3522973 C8.62087442,2.03432432 9.15746977,1.87445946 9.81743256,1.87445946 C10.4749209,1.87445946 11.0072744,2.03186486 11.4088372,2.34597297 C11.809693,2.65691892 12.0108279,3.1062973 12.0108279,3.69375676 L12.0108279,6.43816216 C12.0108279,6.63527027 12.0200186,6.8257027 12.0451163,7.01121622 C12.0705674,7.19708108 12.1112186,7.38259459 12.1653023,7.56178378 L11.4703442,7.56178378 L11.4703442,7.56108108 Z M9.32926512,7.124 C9.84182326,7.124 10.2101581,7.01016216 10.5869767,6.78494595 C10.9609674,6.56078378 11.2151256,6.26881081 11.3487442,5.91535135 L11.3487442,4.84724324 L9.9347907,4.84724324 C9.39466047,4.84724324 8.94749767,4.966 8.59577674,5.20597297 C8.24334884,5.44489189 8.06448372,5.73405405 8.06448372,6.0702973 C8.06448372,6.38721622 8.1776,6.64124324 8.40277209,6.83343243 C8.62794419,7.02772973 8.93618605,7.124 9.32926512,7.124 L9.32926512,7.124 Z" id="Shape"></path>
                    </g>
                </g>
                <g id="get-it-on" transform="translate(19.674419, 2.513514)" fill="#4B4B4B">
                    <path d="M0.00848372093,2.02202703 C0.00848372093,0.841135135 0.891144186,0.0818648649 1.98907907,0.0818648649 C2.72468837,0.0818648649 3.20543256,0.430405405 3.50554419,0.858 L2.96788837,1.16754054 C2.76427907,0.886108108 2.4076093,0.666864865 1.98907907,0.666864865 C1.24251163,0.666864865 0.687534884,1.22937838 0.687534884,2.02202703 C0.687534884,2.80378378 1.24215814,3.37718919 1.98907907,3.37718919 C2.37402791,3.37718919 2.71337674,3.20291892 2.88305116,3.03989189 L2.88305116,2.46051351 L1.75153488,2.46051351 L1.75153488,1.88148649 L3.53947907,1.88148649 L3.53947907,3.28162162 C3.17185116,3.69235135 2.63985116,3.96781081 1.98907907,3.96781081 C0.891144186,3.96781081 0.00848372093,3.19764865 0.00848372093,2.02202703 L0.00848372093,2.02202703 Z" id="Shape"></path>
                    <polygon id="Shape" points="4.35815814 3.89472973 4.35815814 0.143351351 6.94357209 0.143351351 6.94357209 0.72272973 5.01988837 0.72272973 5.01988837 1.69 6.90433488 1.69 6.90433488 2.26937838 5.01988837 2.26937838 5.01988837 3.3157027 6.94357209 3.3157027 6.94357209 3.89472973 4.35815814 3.89472973"></polygon>
                    <polygon id="Shape" points="8.77570233 3.89472973 8.77570233 0.723081081 7.63287442 0.723081081 7.63287442 0.143702703 10.580614 0.143702703 10.580614 0.723081081 9.43813953 0.723081081 9.43813953 3.89472973"></polygon>
                    <polygon id="Shape" points="12.8814698 3.89472973 12.8814698 0.143351351 13.5432 0.143351351 13.5432 3.89472973"></polygon>
                    <polygon id="Shape" points="15.3869953 3.89472973 15.3869953 0.723081081 14.2441674 0.723081081 14.2441674 0.143702703 17.191907 0.143702703 17.191907 0.723081081 16.0490791 0.723081081 16.0490791 3.89472973"></polygon>
                    <path d="M19.3287442,2.02202703 C19.3287442,0.902621622 20.1265674,0.0818648649 21.2584372,0.0818648649 C22.3839442,0.0818648649 23.1877767,0.902972973 23.1877767,2.02202703 C23.1877767,3.14108108 22.3839442,3.96218919 21.2584372,3.96218919 C20.126214,3.96218919 19.3287442,3.14108108 19.3287442,2.02202703 L19.3287442,2.02202703 Z M22.5087256,2.02202703 C22.5087256,1.24589189 22.0163163,0.666864865 21.2584372,0.666864865 C20.4945488,0.666864865 20.0077953,1.24589189 20.0077953,2.02202703 C20.0077953,2.79218919 20.4945488,3.37718919 21.2584372,3.37718919 C22.0163163,3.37718919 22.5087256,2.79218919 22.5087256,2.02202703 L22.5087256,2.02202703 Z" id="Shape"></path>
                    <polygon id="Shape" points="26.5918698 3.89472973 24.6229395 1.21216216 24.6229395 3.89472973 23.9612093 3.89472973 23.9612093 0.143351351 24.6402605 0.143351351 26.5696 2.74194595 26.5696 0.143351351 27.2316837 0.143351351 27.2316837 3.89472973"></polygon>
                </g>
                <path d="M5.35921505,21.1086883 C5.14162733,21.0502461 5,20.8348356 5,20.5014976 L5,9.49850232 C5,9.18978059 5.11991794,8.98157027 5.31001104,8.90586902 L5.31001104,8.90586902 L10.7325583,15.037682 L5.35921505,21.1086883 L5.35921505,21.1086883 Z M6.10566765,20.87513 L12.6327032,17.1863647 L11.0429509,15.3886738 L6.10566765,20.87513 L6.10566765,20.87513 Z M12.677649,12.840045 L6.24157467,9.20184114 L11.052362,14.6763556 L12.677649,12.840045 L12.677649,12.840045 Z M13.1143314,13.0868941 L15.6356309,14.5121421 C16.1130088,14.7819957 16.1173744,15.2169968 15.6356309,15.489255 L13.050545,16.9502207 L11.3644114,15.0314573 L13.1143314,13.0868941 L13.1143314,13.0868941 Z" id="google-play" fill="#5D5D5D"></path>
            </g>
        </g>
    </g>
</svg>