<?xml version="1.0" encoding="utf-8"?>
<!-- Generator: Adobe Illustrator 20.0.0, SVG Export Plug-In . SVG Version: 6.00 Build 0)  -->
<svg version="1.1" id="Layer_1" xmlns="http://www.w3.org/2000/svg" xmlns:xlink="http://www.w3.org/1999/xlink" x="0px" y="0px"
	 viewBox="0 0 142 48" style="enable-background:new 0 0 142 48;" xml:space="preserve">
<style type="text/css">
	.st0{fill:#FFFFFF;}
</style>
<g>
	<path id="Shape" class="st0" d="M96.2,33.5l-1,1c-0.2,0.1-0.5,0.3-0.7,0.4c-0.7,0.3-1.4,0.4-2.1,0.4c-0.7,0-1.8,0-2.8-0.8
		c-1.5-1.1-2.2-2.9-2.2-4.5c0-3.3,2.7-4.9,4.9-4.9c0.8,0,1.6,0.2,2.2,0.6c1.1,0.7,1.3,1.6,1.5,2.1l-5,2l-1.6,0.1
		c0.5,2.7,2.4,4.3,4.4,4.3C94.7,34.1,95.4,33.8,96.2,33.5C96.1,33.4,96.3,33.4,96.2,33.5L96.2,33.5z M93.1,28.1
		c0.4-0.1,0.6-0.3,0.6-0.6c0-0.9-1-1.8-2.1-1.8c-0.9,0-2.5,0.7-2.5,3c0,0.4,0,0.7,0.1,1.1L93.1,28.1L93.1,28.1z"/>
	<path id="Shape_1_" class="st0" d="M85.6,33.3c0,0.8,0.1,1,0.9,1c0.4,0,0.7,0.1,1.1,0.1l-0.8,0.5H83c0.5-0.6,0.6-0.7,0.6-1.1v-0.5
		l0-12.7h-1.7l1.6-0.8h3.1c-0.7,0.4-0.9,0.6-0.9,1.4L85.6,33.3L85.6,33.3z"/>
	<path id="Shape_2_" class="st0" d="M79.8,26c0.5,0.4,1.5,1.3,1.5,2.9c0,1.6-0.9,2.3-1.8,3c-0.3,0.3-0.6,0.6-0.6,1
		c0,0.5,0.3,0.7,0.6,0.9l0.8,0.6c0.9,0.8,1.8,1.5,1.8,3c0,2-1.9,4-5.6,4c-3.1,0-4.6-1.5-4.6-3.1c0-0.8,0.4-1.9,1.7-2.6
		c1.3-0.8,3.1-0.9,4.1-1c-0.3-0.4-0.6-0.8-0.6-1.5c0-0.4,0.1-0.6,0.2-0.8c-0.2,0-0.5,0-0.7,0c-2.3,0-3.6-1.7-3.6-3.4
		c0-1,0.4-2.1,1.4-2.9c1.2-1,2.7-1.2,3.8-1.2h4.4L81.1,26H79.8L79.8,26z M78.3,35.5c-0.2,0-0.3,0-0.5,0c-0.2,0-1.4,0-2.2,0.3
		C75,36,73.7,36.5,73.7,38c0,1.5,1.5,2.6,3.8,2.6c2.1,0,3.1-1,3.1-2.3C80.6,37.2,79.9,36.6,78.3,35.5L78.3,35.5z M78.9,31.4
		c0.5-0.5,0.5-1.2,0.5-1.6c0-1.5-0.9-3.9-2.7-3.9c-0.6,0-1.2,0.3-1.5,0.7c-0.4,0.4-0.5,1-0.5,1.6c0,1.4,0.8,3.8,2.7,3.8
		C78,32,78.5,31.8,78.9,31.4L78.9,31.4z"/>
	<path id="Shape_3_" class="st0" d="M66.5,35.2c-3.4,0-5.2-2.6-5.2-5c0-2.8,2.3-5.2,5.5-5.2c3.1,0,5.1,2.5,5.1,5
		C71.9,32.5,70,35.2,66.5,35.2L66.5,35.2z M69.2,33.5c0.5-0.7,0.6-1.5,0.6-2.4c0-1.9-0.9-5.5-3.6-5.5c-0.7,0-1.4,0.3-1.9,0.7
		c-0.8,0.7-1,1.7-1,2.6c0,2.1,1,5.6,3.6,5.6C67.8,34.5,68.7,34.1,69.2,33.5L69.2,33.5z"/>
	<path id="Shape_4_" class="st0" d="M55.1,35.2c-3.4,0-5.2-2.6-5.2-5c0-2.8,2.3-5.2,5.5-5.2c3.1,0,5.1,2.5,5.1,5
		C60.5,32.5,58.6,35.2,55.1,35.2L55.1,35.2z M57.8,33.5c0.5-0.7,0.6-1.5,0.6-2.4c0-1.9-0.9-5.5-3.6-5.5c-0.7,0-1.4,0.3-1.9,0.7
		c-0.8,0.7-1,1.7-1,2.6c0,2.1,1,5.6,3.6,5.6C56.4,34.5,57.3,34.1,57.8,33.5L57.8,33.5z"/>
	<path id="Shape_5_" class="st0" d="M48.5,34.4l-2.9,0.7c-1.2,0.2-2.2,0.3-3.3,0.3c-5.5,0-7.6-4.1-7.6-7.2c0-3.9,3-7.5,8.1-7.5
		c1.1,0,2.1,0.2,3.1,0.4c1.5,0.4,2.2,0.9,2.6,1.2L46.9,24l-0.7,0.2l0.5-0.8c-0.7-0.7-1.9-1.9-4.3-1.9c-3.2,0-5.6,2.4-5.6,5.9
		c0,3.8,2.7,7.3,7.1,7.3c1.3,0,1.9-0.3,2.5-0.5v-3.2l-3,0.2l1.6-0.9h4.3l-0.5,0.5c-0.1,0.1-0.2,0.2-0.2,0.3c0,0.2,0,0.8,0,1
		L48.5,34.4L48.5,34.4z"/>
	<path id="Shape_6_" class="st0" d="M102.3,33.6V39h-1.1V25.2h1.1v1.6c0.7-1,2-1.8,3.5-1.8c2.7,0,4.5,2,4.5,5.2
		c0,3.2-1.8,5.3-4.5,5.3C104.4,35.4,103.1,34.7,102.3,33.6L102.3,33.6z M109.1,30.2c0-2.4-1.3-4.3-3.5-4.3c-1.4,0-2.7,1.1-3.3,2v4.4
		c0.6,1,1.9,2.1,3.3,2.1C107.9,34.4,109.1,32.6,109.1,30.2L109.1,30.2z"/>
	<polygon id="Shape_7_" class="st0" points="111.8,35.2 111.8,21.3 112.9,21.3 112.9,35.2 	"/>
	<path id="Shape_8_" class="st0" d="M125,38.1c0.2,0.1,0.6,0.2,0.9,0.2c0.7,0,1.1-0.3,1.5-1.2l0.8-1.8L124,25.2h1.2l3.7,8.7l3.6-8.7
		h1.2l-5.2,12.2c-0.5,1.3-1.4,1.9-2.6,1.9c-0.4,0-0.8-0.1-1.1-0.1L125,38.1L125,38.1z"/>
	<path id="Shape_9_" class="st0" d="M121.9,35.1c-0.1-0.3-0.1-0.7-0.2-0.9c0-0.3-0.1-0.5-0.1-0.8c-0.4,0.5-0.9,1-1.6,1.4
		c-0.7,0.4-1.3,0.5-2.2,0.5c-1.1,0-1.9-0.3-2.5-0.8c-0.6-0.5-0.9-1.2-0.9-2.1c0-0.9,0.4-1.6,1.3-2.2c0.8-0.6,1.9-0.8,3.3-0.8h2.5
		v-1.2c0-0.7-0.2-1.3-0.7-1.7c-0.5-0.4-1.2-0.6-2.1-0.6c-0.8,0-1.5,0.2-2,0.6c-0.5,0.4-0.8,0.8-0.8,1.4H115l0-0.1c0-0.8,0.3-1.4,1-2
		c0.7-0.6,1.7-0.9,2.9-0.9c1.2,0,2.1,0.3,2.9,0.8c0.7,0.6,1.1,1.4,1.1,2.4v4.9c0,0.4,0,0.7,0.1,1c0,0.3,0.1,0.7,0.2,1L121.9,35.1
		L121.9,35.1z M118,34.4c0.9,0,1.6-0.2,2.3-0.6c0.7-0.4,1.1-0.9,1.4-1.6v-1.9h-2.5c-1,0-1.8,0.2-2.4,0.6c-0.6,0.4-1,1-1,1.6
		c0,0.6,0.2,1,0.6,1.4C116.8,34.2,117.3,34.4,118,34.4L118,34.4z"/>
	<path id="Shape_10_" class="st0" d="M34.7,10c0-2.1,1.6-3.5,3.6-3.5c1.3,0,2.2,0.6,2.7,1.4l-1,0.6c-0.4-0.5-1-0.9-1.8-0.9
		c-1.3,0-2.3,1-2.3,2.4c0,1.4,1,2.4,2.3,2.4c0.7,0,1.3-0.3,1.6-0.6v-1h-2v-1H41v2.5c-0.7,0.7-1.6,1.2-2.8,1.2
		C36.3,13.5,34.7,12.1,34.7,10L34.7,10z"/>
	<polygon id="Shape_11_" class="st0" points="42.5,13.4 42.5,6.6 47.1,6.6 47.1,7.7 43.7,7.7 43.7,9.4 47,9.4 47,10.4 43.7,10.4 
		43.7,12.3 47.1,12.3 47.1,13.4 	"/>
	<polygon id="Shape_12_" class="st0" points="50.4,13.4 50.4,7.7 48.4,7.7 48.4,6.6 53.6,6.6 53.6,7.7 51.6,7.7 51.6,13.4 	"/>
	<polygon id="Shape_13_" class="st0" points="57.8,13.4 57.8,6.6 59,6.6 59,13.4 	"/>
	<polygon id="Shape_14_" class="st0" points="62.3,13.4 62.3,7.7 60.2,7.7 60.2,6.6 65.5,6.6 65.5,7.7 63.5,7.7 63.5,13.4 	"/>
	<path id="Shape_15_" class="st0" d="M69.3,10c0-2,1.4-3.5,3.5-3.5c2,0,3.5,1.5,3.5,3.5s-1.4,3.5-3.5,3.5C70.8,13.5,69.3,12,69.3,10
		L69.3,10z M75.1,10c0-1.4-0.9-2.4-2.2-2.4c-1.4,0-2.2,1-2.2,2.4c0,1.4,0.9,2.4,2.2,2.4C74.2,12.4,75.1,11.4,75.1,10L75.1,10z"/>
	<polygon id="Shape_16_" class="st0" points="82.4,13.4 78.9,8.5 78.9,13.4 77.7,13.4 77.7,6.6 78.9,6.6 82.3,11.3 82.3,6.6 
		83.5,6.6 83.5,13.4 	"/>
	<path id="google-play" class="st0" d="M9,39.8c-0.4-0.1-0.6-0.5-0.6-1.1V18.9c0-0.6,0.2-0.9,0.6-1.1l0,0l9.7,11L9,39.8L9,39.8z
		 M10.3,39.4L22,32.8l-2.9-3.2L10.3,39.4L10.3,39.4z M22.1,24.9l-11.6-6.5l8.6,9.9L22.1,24.9L22.1,24.9z M22.9,25.4l4.5,2.6
		c0.9,0.5,0.9,1.3,0,1.8l-4.6,2.6l-3-3.5L22.9,25.4L22.9,25.4z"/>
</g>
<g id="path-1">
	<path class="st0" d="M139,47.5H3c-1.4,0-2.5-1.1-2.5-2.5V3c0-1.4,1.1-2.5,2.5-2.5h136c1.4,0,2.5,1.1,2.5,2.5v42
		C141.5,46.4,140.4,47.5,139,47.5z M3,1.5C2.2,1.5,1.5,2.2,1.5,3v42c0,0.8,0.7,1.5,1.5,1.5h136c0.8,0,1.5-0.7,1.5-1.5V3
		c0-0.8-0.7-1.5-1.5-1.5H3z"/>
</g>
</svg>
