<?xml version="1.0" encoding="utf-8"?>
<!-- Generator: Adobe Illustrator 20.0.0, SVG Export Plug-In . SVG Version: 6.00 Build 0)  -->
<svg version="1.1" id="Layer_1" xmlns="http://www.w3.org/2000/svg" xmlns:xlink="http://www.w3.org/1999/xlink" x="0px" y="0px"
	 viewBox="0 0 142 48" style="enable-background:new 0 0 142 48;" xml:space="preserve">
<style type="text/css">
	.st0{fill:#FFFFFF;}
</style>
<g>
	<g id="path-1">
		<path class="st0" d="M139,47.5H3c-1.4,0-2.5-1.1-2.5-2.5V3c0-1.4,1.1-2.5,2.5-2.5h136c1.4,0,2.5,1.1,2.5,2.5v42
			C141.5,46.4,140.4,47.5,139,47.5z M3,1.5C2.2,1.5,1.5,2.2,1.5,3v42c0,0.8,0.7,1.5,1.5,1.5h136c0.8,0,1.5-0.7,1.5-1.5V3
			c0-0.8-0.7-1.5-1.5-1.5H3z"/>
	</g>
	<g>
		<path class="st0" d="M41,14.2l-0.8,2.5H39l2.7-8.1h1.3l2.8,8.1h-1.1l-0.9-2.5H41z M43.6,13.4l-0.8-2.3c-0.2-0.5-0.3-1-0.4-1.5h0
			c-0.1,0.5-0.3,1-0.4,1.5l-0.8,2.3H43.6z"/>
		<path class="st0" d="M47.4,10.9l1.1,3.3c0.2,0.5,0.3,1,0.5,1.5h0c0.1-0.5,0.3-1,0.5-1.5l1.1-3.3h1.1l-2.3,5.8h-1l-2.2-5.8H47.4z"
			/>
		<path class="st0" d="M56.1,16.7L56.1,16h0c-0.3,0.5-0.9,0.9-1.8,0.9c-1.2,0-1.8-0.8-1.8-1.7c0-1.4,1.2-2.2,3.5-2.2v-0.1
			c0-0.5-0.1-1.3-1.3-1.3c-0.5,0-1.1,0.2-1.5,0.4l-0.2-0.7c0.5-0.3,1.2-0.5,1.9-0.5c1.8,0,2.2,1.2,2.2,2.4v2.2c0,0.5,0,1,0.1,1.4
			H56.1z M56,13.8c-1.2,0-2.5,0.2-2.5,1.3c0,0.7,0.5,1,1,1c0.8,0,1.2-0.5,1.4-1c0-0.1,0.1-0.2,0.1-0.3V13.8z"/>
		<path class="st0" d="M60.1,9.3c0,0.4-0.3,0.6-0.7,0.6c-0.4,0-0.6-0.3-0.6-0.6c0-0.4,0.3-0.7,0.7-0.7C59.9,8.6,60.1,8.9,60.1,9.3z
			 M58.9,16.7v-5.8H60v5.8H58.9z"/>
		<path class="st0" d="M62,8.2H63v8.5H62V8.2z"/>
		<path class="st0" d="M68.3,16.7L68.2,16h0c-0.3,0.5-0.9,0.9-1.8,0.9c-1.2,0-1.8-0.8-1.8-1.7c0-1.4,1.2-2.2,3.5-2.2v-0.1
			c0-0.5-0.1-1.3-1.3-1.3c-0.5,0-1.1,0.2-1.5,0.4L65,11.3c0.5-0.3,1.2-0.5,1.9-0.5c1.8,0,2.2,1.2,2.2,2.4v2.2c0,0.5,0,1,0.1,1.4
			H68.3z M68.1,13.8c-1.2,0-2.5,0.2-2.5,1.3c0,0.7,0.5,1,1,1c0.8,0,1.2-0.5,1.4-1c0-0.1,0.1-0.2,0.1-0.3V13.8z"/>
		<path class="st0" d="M71,16.7c0-0.4,0-1,0-1.5v-7h1v3.6h0c0.4-0.6,1-1.1,2-1.1c1.4,0,2.5,1.2,2.4,3c0,2.1-1.3,3.1-2.6,3.1
			c-0.8,0-1.5-0.3-1.9-1.1h0l0,1H71z M72.1,14.4c0,0.1,0,0.3,0,0.4c0.2,0.7,0.8,1.2,1.6,1.2c1.1,0,1.8-0.9,1.8-2.2
			c0-1.2-0.6-2.2-1.7-2.2c-0.7,0-1.4,0.5-1.6,1.3c0,0.1-0.1,0.3-0.1,0.4V14.4z"/>
		<path class="st0" d="M78.2,8.2h1.1v8.5h-1.1V8.2z"/>
		<path class="st0" d="M81.8,14c0,1.4,0.9,2,2,2c0.8,0,1.2-0.1,1.6-0.3l0.2,0.8c-0.4,0.2-1,0.4-1.9,0.4c-1.8,0-2.9-1.2-2.9-2.9
			s1-3.1,2.7-3.1c1.9,0,2.4,1.7,2.4,2.7c0,0.2,0,0.4,0,0.5H81.8z M84.9,13.3c0-0.7-0.3-1.7-1.5-1.7c-1.1,0-1.5,1-1.6,1.7H84.9z"/>
		<path class="st0" d="M95.5,13.8c0,2.1-1.5,3.1-2.9,3.1c-1.6,0-2.8-1.2-2.8-3c0-1.9,1.3-3.1,2.9-3.1C94.4,10.8,95.5,12,95.5,13.8z
			 M90.9,13.8c0,1.3,0.7,2.2,1.8,2.2c1,0,1.8-0.9,1.8-2.3c0-1-0.5-2.2-1.7-2.2C91.5,11.6,90.9,12.7,90.9,13.8z"/>
		<path class="st0" d="M97.1,12.5c0-0.6,0-1.1,0-1.6H98l0.1,1h0c0.3-0.6,1-1.1,1.9-1.1c0.8,0,2.1,0.5,2.1,2.5v3.5H101v-3.3
			c0-0.9-0.3-1.7-1.3-1.7c-0.7,0-1.2,0.5-1.4,1.1c0,0.1-0.1,0.3-0.1,0.5v3.5h-1.1V12.5z"/>
		<path class="st0" d="M108,9.3v1.7h1.5v0.8H108v3.1c0,0.7,0.2,1.1,0.8,1.1c0.3,0,0.5,0,0.6-0.1l0,0.8c-0.2,0.1-0.5,0.1-0.9,0.1
			c-0.5,0-0.9-0.2-1.1-0.4c-0.3-0.3-0.4-0.8-0.4-1.5v-3.2h-0.9v-0.8h0.9V9.5L108,9.3z"/>
		<path class="st0" d="M111,8.2h1.1v3.6h0c0.2-0.3,0.4-0.6,0.8-0.7c0.3-0.2,0.7-0.3,1.1-0.3c0.8,0,2,0.5,2,2.5v3.5h-1.1v-3.3
			c0-0.9-0.3-1.7-1.3-1.7c-0.7,0-1.2,0.5-1.4,1.1c-0.1,0.1-0.1,0.3-0.1,0.5v3.5H111V8.2z"/>
		<path class="st0" d="M118.5,14c0,1.4,0.9,2,2,2c0.8,0,1.2-0.1,1.6-0.3l0.2,0.8c-0.4,0.2-1,0.4-1.9,0.4c-1.8,0-2.9-1.2-2.9-2.9
			s1-3.1,2.7-3.1c1.9,0,2.4,1.7,2.4,2.7c0,0.2,0,0.4,0,0.5H118.5z M121.6,13.3c0-0.7-0.3-1.7-1.5-1.7c-1.1,0-1.5,1-1.6,1.7H121.6z"
			/>
		<path class="st0" d="M43,30.9l-1.6,4.8h-2.1l5.2-15.4H47l5.3,15.4h-2.1l-1.6-4.8H43z M48,29.3l-1.5-4.4c-0.3-1-0.6-1.9-0.8-2.8h0
			c-0.2,0.9-0.5,1.9-0.8,2.8l-1.5,4.5H48z"/>
		<path class="st0" d="M53.6,28.3c0-1.4,0-2.6-0.1-3.6h1.8l0.1,1.9h0c0.8-1.3,2.1-2.2,3.9-2.2c2.7,0,4.7,2.3,4.7,5.6
			c0,4-2.4,5.9-5,5.9c-1.5,0-2.7-0.6-3.4-1.7h0v6h-2V28.3z M55.5,31.2c0,0.3,0,0.6,0.1,0.8c0.4,1.4,1.6,2.4,3,2.4
			c2.1,0,3.4-1.7,3.4-4.3c0-2.2-1.2-4.1-3.3-4.1c-1.4,0-2.7,1-3,2.5c-0.1,0.3-0.1,0.5-0.1,0.8V31.2z"/>
		<path class="st0" d="M65.8,28.3c0-1.4,0-2.6-0.1-3.6h1.8l0.1,1.9h0c0.8-1.3,2.1-2.2,3.9-2.2c2.7,0,4.7,2.3,4.7,5.6
			c0,4-2.4,5.9-5,5.9c-1.5,0-2.7-0.6-3.4-1.7h0v6h-2V28.3z M67.8,31.2c0,0.3,0,0.6,0.1,0.8c0.4,1.4,1.6,2.4,3,2.4
			c2.1,0,3.4-1.7,3.4-4.3c0-2.2-1.2-4.1-3.3-4.1c-1.4,0-2.7,1-3,2.5c-0.1,0.3-0.1,0.5-0.1,0.8V31.2z"/>
		<path class="st0" d="M81.8,33.3c0.9,0.5,2.2,1,3.6,1c2,0,3.2-1.1,3.2-2.6c0-1.4-0.8-2.3-2.9-3.1c-2.5-0.9-4.1-2.2-4.1-4.4
			c0-2.4,2-4.2,5-4.2c1.6,0,2.7,0.4,3.4,0.8l-0.5,1.6c-0.5-0.3-1.5-0.7-2.9-0.7c-2.1,0-2.9,1.3-2.9,2.3c0,1.4,0.9,2.2,3.1,3
			c2.6,1,3.9,2.3,3.9,4.5c0,2.4-1.8,4.4-5.4,4.4c-1.5,0-3.1-0.4-3.9-1L81.8,33.3z"/>
		<path class="st0" d="M94.9,21.5v3.2h2.9v1.5h-2.9v6c0,1.4,0.4,2.2,1.5,2.2c0.5,0,0.9-0.1,1.2-0.1l0.1,1.5c-0.4,0.2-1,0.3-1.8,0.3
			c-0.9,0-1.7-0.3-2.2-0.8c-0.6-0.6-0.8-1.6-0.8-2.9v-6h-1.7v-1.5h1.7V22L94.9,21.5z"/>
		<path class="st0" d="M109.1,30.1c0,4.1-2.8,5.9-5.5,5.9c-3,0-5.3-2.2-5.3-5.7c0-3.7,2.4-5.9,5.5-5.9
			C106.9,24.4,109.1,26.7,109.1,30.1z M100.3,30.2c0,2.4,1.4,4.3,3.4,4.3c1.9,0,3.4-1.8,3.4-4.3c0-1.9-0.9-4.3-3.3-4.3
			S100.3,28.1,100.3,30.2z"/>
		<path class="st0" d="M110.8,28.1c0-1.3,0-2.4-0.1-3.5h1.8l0.1,2.2h0.1c0.5-1.5,1.7-2.4,3.1-2.4c0.2,0,0.4,0,0.6,0.1v1.9
			c-0.2,0-0.4-0.1-0.7-0.1c-1.4,0-2.4,1.1-2.7,2.6c0,0.3-0.1,0.6-0.1,0.9v5.9h-2V28.1z"/>
		<path class="st0" d="M118.4,30.6c0,2.7,1.8,3.8,3.8,3.8c1.4,0,2.3-0.3,3.1-0.6l0.3,1.4c-0.7,0.3-1.9,0.7-3.7,0.7
			c-3.4,0-5.4-2.2-5.4-5.6c0-3.3,2-6,5.2-6c3.6,0,4.6,3.2,4.6,5.2c0,0.4,0,0.7-0.1,0.9H118.4z M124.3,29.1c0-1.3-0.5-3.3-2.8-3.3
			c-2,0-2.9,1.9-3.1,3.3H124.3z"/>
		<path class="st0" d="M29.5,7.7H18c-1.3,0-2.3,1.1-2.3,2.5v26c0,1.4,1,2.5,2.3,2.5h11.4c1.3,0,2.3-1.1,2.3-2.5v-26
			C31.8,8.9,30.7,7.7,29.5,7.7z M22.1,9.3h3.2c0.2,0,0.4,0.2,0.4,0.5c0,0.3-0.2,0.5-0.4,0.5h-3.2c-0.2,0-0.4-0.2-0.4-0.5
			C21.8,9.5,21.9,9.3,22.1,9.3z M23.8,37.7c-0.6,0-1-0.5-1-1s0.4-1,1-1s1,0.5,1,1S24.3,37.7,23.8,37.7z M30.2,34.7h-13V11.8h13V34.7
			z"/>
	</g>
</g>
</svg>
