<?xml version="1.0" encoding="UTF-8" standalone="no"?>
<svg width="42px" height="53px" viewBox="0 0 42 53" version="1.1" xmlns="http://www.w3.org/2000/svg" xmlns:xlink="http://www.w3.org/1999/xlink">
    <!-- Generator: Sketch 39.1 (31720) - http://www.bohemiancoding.com/sketch -->
    <title>circ_Google_download</title>
    <desc>Created with Sketch.</desc>
    <defs>
        <circle id="path-1" cx="21" cy="21" r="21"></circle>
        <mask id="mask-2" maskContentUnits="userSpaceOnUse" maskUnits="objectBoundingBox" x="0" y="0" width="42" height="42" fill="white">
            <use xlink:href="#path-1"></use>
        </mask>
        <rect id="path-3" x="21" y="37" width="1" height="14"></rect>
        <mask id="mask-4" maskContentUnits="userSpaceOnUse" maskUnits="objectBoundingBox" x="-2" y="-2" width="5" height="18">
            <rect x="19" y="35" width="5" height="18" fill="white"></rect>
            <use xlink:href="#path-3" fill="black"></use>
        </mask>
    </defs>
    <g id="Page-1" stroke="none" stroke-width="1" fill="none" fill-rule="evenodd">
        <g id="Store-Icons" transform="translate(-85.000000, -99.000000)">
            <g id="circ_Google_download" transform="translate(85.000000, 99.000000)">
                <use id="Oval-1" stroke="#5D5D5D" mask="url(#mask-2)" stroke-width="2" xlink:href="#path-1"></use>
                <g id="Rectangle-7">
                    <use fill="#5D5D5D" fill-rule="evenodd" xlink:href="#path-3"></use>
                    <use stroke="#FFFFFF" mask="url(#mask-4)" stroke-width="4" xlink:href="#path-3"></use>
                </g>
                <polyline id="Triangle-1" stroke="#5D5D5D" transform="translate(21.468911, 48.750000) scale(1, -1) translate(-21.468911, -48.750000) " points="17.4689111 51.5 21.5 46.25 25.5310889 51.5"></polyline>
                <path d="M14.6531183,32.3718354 C14.2575042,32.2646912 14,31.869772 14,31.2586525 L14,11.0864944 C14,10.5205045 14.2180326,10.1387856 14.5636564,10 L14.5636564,10 L24.4228332,21.2416571 L14.6531183,32.3718354 L14.6531183,32.3718354 Z M16.0103048,31.9436451 L27.8776422,25.1809087 L24.9871835,21.8851421 L16.0103048,31.9436451 L16.0103048,31.9436451 Z M27.9593618,17.2126559 L16.2574085,10.5426155 L25.0042946,20.5792254 L27.9593618,17.2126559 L27.9593618,17.2126559 Z M28.7533298,17.6652127 L33.3375107,20.2781673 C34.2054705,20.7728989 34.213408,21.5704009 33.3375107,22.0695409 L28.6373545,24.7479781 L25.5716571,21.2302452 L28.7533298,17.6652127 L28.7533298,17.6652127 Z" id="Google-Play-Vector-2" fill="#5D5D5D"></path>
            </g>
        </g>
    </g>
</svg>