<?xml version="1.0" encoding="UTF-8" standalone="no"?>
<svg width="42px" height="53px" viewBox="0 0 42 53" version="1.1" xmlns="http://www.w3.org/2000/svg" xmlns:xlink="http://www.w3.org/1999/xlink">
    <!-- Generator: Sketch 39.1 (31720) - http://www.bohemiancoding.com/sketch -->
    <title>circ_iPhone_download</title>
    <desc>Created with Sketch.</desc>
    <defs>
        <circle id="path-1" cx="21" cy="21" r="21"></circle>
        <mask id="mask-2" maskContentUnits="userSpaceOnUse" maskUnits="objectBoundingBox" x="0" y="0" width="42" height="42" fill="white">
            <use xlink:href="#path-1"></use>
        </mask>
        <rect id="path-3" x="21" y="37" width="1" height="14"></rect>
        <mask id="mask-4" maskContentUnits="userSpaceOnUse" maskUnits="objectBoundingBox" x="-2" y="-2" width="5" height="18">
            <rect x="19" y="35" width="5" height="18" fill="white"></rect>
            <use xlink:href="#path-3" fill="black"></use>
        </mask>
    </defs>
    <g id="Page-1" stroke="none" stroke-width="1" fill="none" fill-rule="evenodd">
        <g id="Store-Icons" transform="translate(-25.000000, -99.000000)">
            <g id="circ_iPhone_download" transform="translate(25.000000, 99.000000)">
                <path d="M16.7193074,9 C15.7697602,9 15,9.83217005 15,10.8627041 L15,30.1372959 C15,31.166039 15.7689087,32 16.7193074,32 L25.2806926,32 C26.2302398,32 27,31.16783 27,30.1372959 L27,10.8627041 C27,9.83396103 26.2310913,9 25.2806926,9 L16.7193074,9 L16.7193074,9 Z M16.125,12.0163934 L16.125,28.9836066 L25.875,28.9836066 L25.875,12.0163934 L16.125,12.0163934 L16.125,12.0163934 Z M21,31.2459016 C21.4142136,31.2459016 21.75,30.9082803 21.75,30.4918033 C21.75,30.0753263 21.4142136,29.7377049 21,29.7377049 C20.5857864,29.7377049 20.25,30.0753263 20.25,30.4918033 C20.25,30.9082803 20.5857864,31.2459016 21,31.2459016 L21,31.2459016 Z M19.5,10.5081967 C19.5,10.7164352 19.6289062,10.8852459 19.7986193,10.8852459 L22.2013807,10.8852459 C22.3663036,10.8852459 22.5,10.7103452 22.5,10.5081967 C22.5,10.2999582 22.3710938,10.1311475 22.2013807,10.1311475 L19.7986193,10.1311475 C19.6336964,10.1311475 19.5,10.3060483 19.5,10.5081967 Z" id="IPhone-Vector-2" fill="#5D5D5D"></path>
                <use id="Oval-1" stroke="#5D5D5D" mask="url(#mask-2)" stroke-width="2" xlink:href="#path-1"></use>
                <g id="Rectangle-7">
                    <use fill="#5D5D5D" fill-rule="evenodd" xlink:href="#path-3"></use>
                    <use stroke="#FFFFFF" mask="url(#mask-4)" stroke-width="4" xlink:href="#path-3"></use>
                </g>
                <polyline id="Triangle-1" stroke="#5D5D5D" transform="translate(21.468911, 48.750000) scale(1, -1) translate(-21.468911, -48.750000) " points="17.4689111 51.5 21.5 46.25 25.5310889 51.5"></polyline>
            </g>
        </g>
    </g>
</svg>