<svg xmlns="http://www.w3.org/2000/svg" viewBox="0 0 536.02 124.14"><defs><style>.cls-1{fill:#fff;}</style></defs><title>logo_text</title><g id="Layer_2" data-name="Layer 2"><g id="Layer_1-2" data-name="Layer 1"><path class="cls-1" d="M299.39,4.8a3.27,3.27,0,0,1,3.27-3.27h51.51a37.46,37.46,0,0,1,37.56,37.21c0,15.85-10.51,28.6-25.5,34.63l23.6,43.76a3.26,3.26,0,0,1-2.93,5H364a3.17,3.17,0,0,1-2.76-1.55L338.33,74.92H326.44v43.93a3.39,3.39,0,0,1-3.27,3.27h-20.5a3.27,3.27,0,0,1-3.27-3.27ZM351.94,53C359,53,365,46.49,365,39.26a13.2,13.2,0,0,0-13.09-13.09h-25.5V53Z"/><path class="cls-1" d="M458.15,4.8a3.27,3.27,0,0,1,3.27-3.27h71.33A3.27,3.27,0,0,1,536,4.8V23.58a3.27,3.27,0,0,1-3.27,3.27H485V51.66h39.28a3.39,3.39,0,0,1,3.27,3.27V73.71A3.39,3.39,0,0,1,524.31,77H485v41.87a3.39,3.39,0,0,1-3.27,3.27H461.42a3.27,3.27,0,0,1-3.27-3.27Z"/><path class="cls-1" d="M237.07,42.92c0,10.83,0,21.66,0,32.49-.09,23.92-17.37,43.53-40.92,48-26,4.91-57.77-15-57.34-48.57.21-16.14,0-32.29,0-48.43,0-4.68.79-5.48,5.36-5.49h17.15c4.64,0,5.31.69,5.31,5.46,0,16.25-.13,32.49,0,48.74.18,16.51,17.13,26.51,31.52,18.65,7.55-4.12,11.08-10.82,11.1-19.31.06-22.16,0-44.32,0-66.49,0-5.84.4-6.23,6.38-6.23,5.52,0,11,0,16.55,0,3.83,0,4.84,1,4.84,4.79Q237.09,24.72,237.07,42.92Z"/><path class="cls-1" d="M.86,106,9,91.66c1.38-2.24,4.65-1.9,5.86-1,.69.34,13.09,9.48,24.46,9.48,6.89,0,11.89-4.31,11.89-10.34,0-7.24-6-12.75-17.75-17.4C18.61,66.5,0,55,0,34.29,0,17.23,13.27,0,39.8,0,57.72,0,71.5,9.13,76.67,12.92c2.07,1.21,1.72,4.31,1,5.51L68.91,31.7c-1.21,1.89-4.31,3.45-5.86,2.24C61.51,33.08,48.93,23.6,38.42,23.6c-6.2,0-10.85,4.13-10.85,8.79,0,6.38,5.17,11.2,18.78,16.71C59.78,54.44,81.15,65,81.15,88.38c0,17.75-15.33,35.66-40.66,35.66-22.4,0-34.8-9.3-38.76-13.27C0,109.06-.52,108.37.86,106Z"/></g></g></svg>