<svg xmlns="http://www.w3.org/2000/svg" viewBox="0 0 536.02 413.52"><defs><style>.cls-1{fill:#fff;}</style></defs><title>logo</title><g id="Layer_2" data-name="Layer 2"><g id="Layer_1-2" data-name="Layer 1"><path class="cls-1" d="M358.69,65.06c1.86-.95,3.15-1.58,4.41-2.25,18-9.65,36-19.35,54.07-28.92a82.84,82.84,0,0,1,11.2-4.94c6.31-2.23,10.12.57,10.12,7.19q0,74,0,147.94c0,.73,0,1.47-.06,2.2-.48,5.45-2.83,7-8,5.21a54.09,54.09,0,0,1-7.43-3.36q-30-16-59.89-32c-1.25-.67-2.53-1.28-4.19-2.12-.09,1.52-.2,2.52-.2,3.53,0,9.23,0,18.47,0,27.7a35.41,35.41,0,0,1-23.86,33.62,24.16,24.16,0,0,1-7.69,1.25q-95.06.17-190.12.18c-15.21,0-29.39-10.82-33.08-25.14a24,24,0,0,1-.62-5.91q-.13-77.43-.21-154.86c0-15.17,7.82-25.24,20.67-31.87A23.26,23.26,0,0,1,134.08.22C197.66.09,261.24.27,324.82,0c11.72,0,20.08,5.17,26.82,13.74a31.85,31.85,0,0,1,7.11,21C358.5,44.6,358.69,54.46,358.69,65.06Zm-71.91,41.73c-4-15.55-11.32-28.45-24.55-37.23a134.54,134.54,0,0,0-18.58-10.49C224.82,50.51,205.58,48.72,186,57,157,69.3,136.33,90.26,123.16,118.74a64.64,64.64,0,0,0-5.73,27.81q.1,19,0,38.08c0,13.17,7.94,21.35,21,21.36q92.05,0,184.11,0a30.53,30.53,0,0,0,7.47-.87c9.22-2.36,14.28-9.62,14.31-20.71.07-25.39,0-50.77,0-76.16a8.67,8.67,0,0,0-.29-1.58,8.83,8.83,0,0,0-1.39,3.25A68.1,68.1,0,0,1,276,162.23c-20.58,0-34-10.11-39.72-30-.75-2.61-1.38-5.27-1.87-7.95-1.74-9.56,1.36-17.35,8.89-23.39,10-8,21.21-8.73,32.12-2C279.18,101.29,282.75,104,286.79,106.79Zm4.5,12.52a4.87,4.87,0,0,1-.9-.37c-.9-.72-1.77-1.48-2.67-2.2a45.75,45.75,0,0,0-25.22-10.37c-8.45-.71-15.07,4.31-16.53,12.2A27.68,27.68,0,0,0,265.16,150c15.16,4.45,29.29,2,42.09-7.29a62.56,62.56,0,0,0,21.63-28,235.88,235.88,0,0,0,7.93-24.83c4.95-18.29,8.07-36.89,7.43-55.93-.41-12.36-7.64-19.34-19.95-19.49-8.29-.1-16.58-.09-24.87-.09q-80.9,0-161.8,0c-12.1,0-20.11,8.12-20.12,20.18q0,29.59,0,59.18c0,1.32.16,2.64.26,4.29a6.44,6.44,0,0,0,1-.88c.79-1.23,1.56-2.49,2.32-3.74a118.81,118.81,0,0,1,51.71-46.85C188,39.23,204.16,35.34,221.1,37.7c25.77,3.58,46,16.77,61.58,37.25a52,52,0,0,1,10.08,23.47C293.89,105.4,294.31,112.35,291.28,119.3ZM424.55,45.7c-1.44.7-2.46,1.16-3.44,1.69-19.29,10.36-38.54,20.79-57.9,31-3.24,1.71-4.48,3.86-4.47,7.43q.1,23.91-.16,47.82c0,3.29,1.26,5.14,4.11,6.64,19.35,10.25,38.63,20.63,57.94,30.95,1.17.63,2.41,1.12,3.92,1.81Z"/><path class="cls-1" d="M299.39,294.19a3.27,3.27,0,0,1,3.27-3.27h51.51a37.46,37.46,0,0,1,37.56,37.21c0,15.85-10.51,28.6-25.5,34.63l23.6,43.76a3.26,3.26,0,0,1-2.93,5H364a3.17,3.17,0,0,1-2.76-1.55l-22.91-45.66H326.44v43.93a3.39,3.39,0,0,1-3.27,3.27h-20.5a3.27,3.27,0,0,1-3.27-3.27Zm52.55,48.24c7.06,0,13.09-6.55,13.09-13.78a13.2,13.2,0,0,0-13.09-13.09h-25.5v26.88Z"/><path class="cls-1" d="M458.15,294.19a3.27,3.27,0,0,1,3.27-3.27h71.33a3.27,3.27,0,0,1,3.27,3.27V313a3.27,3.27,0,0,1-3.27,3.27H485V341h39.28a3.39,3.39,0,0,1,3.27,3.27V363.1a3.39,3.39,0,0,1-3.27,3.27H485v41.87a3.39,3.39,0,0,1-3.27,3.27H461.42a3.27,3.27,0,0,1-3.27-3.27Z"/><path class="cls-1" d="M237.07,332.3c0,10.83,0,21.66,0,32.49-.09,23.92-17.37,43.53-40.92,48-26,4.91-57.77-15-57.34-48.57.21-16.14,0-32.29,0-48.43,0-4.68.79-5.48,5.36-5.49h17.15c4.64,0,5.31.69,5.31,5.46,0,16.25-.13,32.49,0,48.74.18,16.51,17.13,26.51,31.52,18.65,7.55-4.12,11.08-10.82,11.1-19.31.06-22.16,0-44.32,0-66.49,0-5.84.4-6.23,6.38-6.23,5.52,0,11,0,16.55,0,3.83,0,4.84,1,4.84,4.79Q237.09,314.1,237.07,332.3Z"/><path class="cls-1" d="M.86,395.34,9,381c1.38-2.24,4.65-1.9,5.86-1,.69.34,13.09,9.48,24.46,9.48,6.89,0,11.89-4.31,11.89-10.34,0-7.24-6-12.75-17.75-17.4C18.61,355.89,0,344.34,0,323.67c0-17.06,13.27-34.29,39.8-34.29,17.92,0,31.7,9.13,36.87,12.92,2.07,1.21,1.72,4.31,1,5.51l-8.79,13.27c-1.21,1.89-4.31,3.45-5.86,2.24C61.51,322.46,48.93,313,38.42,313c-6.2,0-10.85,4.13-10.85,8.79,0,6.38,5.17,11.2,18.78,16.71,13.44,5.34,34.8,15.85,34.8,39.28,0,17.75-15.33,35.66-40.66,35.66-22.4,0-34.8-9.3-38.76-13.27C0,398.44-.52,397.75.86,395.34Z"/></g></g></svg>