<svg xmlns="http://www.w3.org/2000/svg" viewBox="0 0 335.37 220.24"><defs><style>.cls-1{fill:#fff;}</style></defs><title>logo_icon</title><g id="Layer_2" data-name="Layer 2"><g id="Layer_1-2" data-name="Layer 1"><path class="cls-1" d="M255.56,65.06c1.86-.95,3.15-1.58,4.41-2.25,18-9.65,36-19.35,54.07-28.92a82.84,82.84,0,0,1,11.2-4.94c6.31-2.23,10.12.57,10.12,7.19q0,74,0,147.94c0,.73,0,1.47-.06,2.2-.48,5.45-2.83,7-8,5.21a54.09,54.09,0,0,1-7.43-3.36q-30-16-59.89-32c-1.25-.67-2.53-1.28-4.19-2.12-.09,1.52-.2,2.52-.2,3.53,0,9.23,0,18.47,0,27.7a35.41,35.41,0,0,1-23.86,33.62,24.16,24.16,0,0,1-7.69,1.25q-95.06.17-190.12.18c-15.21,0-29.39-10.82-33.08-25.14a24,24,0,0,1-.62-5.91Q.08,111.76,0,34.33C0,19.16,7.82,9.09,20.67,2.46A23.26,23.26,0,0,1,30.94.22C94.53.09,158.11.27,221.69,0c11.72,0,20.08,5.17,26.82,13.74a31.85,31.85,0,0,1,7.11,21C255.37,44.6,255.56,54.46,255.56,65.06Zm-71.91,41.73c-4-15.55-11.32-28.45-24.55-37.23a134.54,134.54,0,0,0-18.58-10.49C121.68,50.51,102.45,48.72,82.91,57,53.82,69.3,33.2,90.26,20,118.74a64.64,64.64,0,0,0-5.73,27.81q.1,19,0,38.08c0,13.17,7.94,21.35,21,21.36q92.05,0,184.11,0a30.53,30.53,0,0,0,7.47-.87c9.22-2.36,14.28-9.62,14.31-20.71.07-25.39,0-50.77,0-76.16a8.67,8.67,0,0,0-.29-1.58,8.83,8.83,0,0,0-1.39,3.25,68.1,68.1,0,0,1-66.73,52.33c-20.58,0-34-10.11-39.72-30-.75-2.61-1.38-5.27-1.87-7.95-1.74-9.56,1.36-17.35,8.89-23.39,10-8,21.21-8.73,32.12-2C176,101.29,179.62,104,183.65,106.79Zm4.5,12.52a4.87,4.87,0,0,1-.9-.37c-.9-.72-1.77-1.48-2.67-2.2a45.75,45.75,0,0,0-25.22-10.37c-8.45-.71-15.07,4.31-16.53,12.2A27.68,27.68,0,0,0,162,150c15.16,4.45,29.29,2,42.09-7.29a62.56,62.56,0,0,0,21.63-28,235.88,235.88,0,0,0,7.93-24.83c4.95-18.29,8.07-36.89,7.43-55.93-.41-12.36-7.64-19.34-19.95-19.49-8.29-.1-16.58-.09-24.87-.09q-80.9,0-161.8,0c-12.1,0-20.11,8.12-20.12,20.18q0,29.59,0,59.18c0,1.32.16,2.64.26,4.29a6.44,6.44,0,0,0,1-.88c.79-1.23,1.56-2.49,2.32-3.74A118.81,118.81,0,0,1,69.71,46.46C84.9,39.23,101,35.34,118,37.7c25.77,3.58,46,16.77,61.58,37.25a52,52,0,0,1,10.08,23.47C190.76,105.4,191.18,112.35,188.15,119.3ZM321.42,45.7c-1.44.7-2.46,1.16-3.44,1.69-19.29,10.36-38.54,20.79-57.9,31-3.24,1.71-4.48,3.86-4.47,7.43q.1,23.91-.16,47.82c0,3.29,1.26,5.14,4.11,6.64,19.35,10.25,38.63,20.63,57.94,30.95,1.17.63,2.41,1.12,3.92,1.81Z"/></g></g></svg>