<svg xmlns="http://www.w3.org/2000/svg" viewBox="0 0 756 1593"><defs><style>.cls-1{fill:#fff;}.cls-2,.cls-3{fill:none;stroke:#000;stroke-miterlimit:10;}.cls-2{stroke-width:4px;}.cls-3{stroke-width:2px;}</style></defs><title>phone</title><g id="Layer_2" data-name="Layer 2"><g id="Layer_2-2" data-name="Layer 2"><path class="cls-1" d="M511,21V7a5,5,0,0,1,5-5H629a5,5,0,0,1,5,5V21"/><path class="cls-2" d="M511,21V7a5,5,0,0,1,5-5H629a5,5,0,0,1,5,5V21"/><path class="cls-1" d="M21,296H7a5,5,0,0,1-5-5V238a5,5,0,0,1,5-5H21"/><path class="cls-2" d="M21,296H7a5,5,0,0,1-5-5V238a5,5,0,0,1,5-5H21"/><path class="cls-1" d="M21,431H7a5,5,0,0,1-5-5V379a5,5,0,0,1,5-5H21"/><path class="cls-2" d="M21,431H7a5,5,0,0,1-5-5V379a5,5,0,0,1,5-5H21"/><path class="cls-1" d="M21,565H7a5,5,0,0,1-5-5V513a5,5,0,0,1,5-5H21"/><path class="cls-2" d="M21,565H7a5,5,0,0,1-5-5V513a5,5,0,0,1,5-5H21"/><rect class="cls-1" x="13.5" y="15.5" width="740" height="1575" rx="105.5" ry="105.5"/><path d="M648,18c56.65,0,103,46.35,103,103V1485c0,56.65-46.35,103-103,103H119c-56.65,0-103-46.35-103-103V121C16,64.35,62.35,18,119,18H648m0-5H119A108.3,108.3,0,0,0,11,121V1485a108.3,108.3,0,0,0,108,108H648a108.3,108.3,0,0,0,108-108V121A108.3,108.3,0,0,0,648,13Z"/><circle class="cls-3" cx="383" cy="1481" r="71"/><rect class="cls-3" x="358" y="1455" width="50" height="50" rx="14" ry="14"/><rect class="cls-1" x="57.5" y="229.5" width="651" height="1148"/><path d="M706,232V1375H60V232H706m5-5H55V1380H711V227Z"/><path d="M437,141a5.52,5.52,0,1,1,0,11H330a5.52,5.52,0,1,1,0-11H437m0-2H330a7.52,7.52,0,1,0,0,15H437a7.52,7.52,0,1,0,0-15Z"/><circle class="cls-3" cx="281" cy="146" r="10"/><circle class="cls-3" cx="384.5" cy="86.5" r="14.5"/></g></g></svg>